<svg width="504" height="252" fill="none" xmlns="http://www.w3.org/2000/svg"><path fill="#092272" d="M0 0h504v252H0z"/><path fill="url(#paint0_linear)" d="M0 0h504v252H0z"/><path fill="url(#paint1_radial)" d="M0 0h504v252H0z"/><g filter="url(#filter0_d)"><circle cx="251.5" cy="125.5" r="82.5" fill="#C00"/><g filter="url(#filter1_d)"><path d="M223.546 180.371l22.472-44.942h-39.569c-3.715-.328-4.419-3.792-1.466-6.84l70.345-61.063c3.77-2.83 7.328 0 5.862 3.908 0 0-18.562 36.638-19.54 38.592-.977 1.954-2.962 5.388 0 5.374h36.15c3.419 0 4.847 3.829 2.442 6.35l-72.299 61.552c-1.954 1.466-5.862 1.466-4.397-2.931z" fill="#FFAC33"/><path d="M223.546 180.371l22.472-44.942h-39.569c-3.715-.328-4.419-3.792-1.466-6.84l70.345-61.063c3.77-2.83 7.328 0 5.862 3.908 0 0-18.562 36.638-19.54 38.592-.977 1.954-2.962 5.388 0 5.374h36.15c3.419 0 4.847 3.829 2.442 6.35l-72.299 61.552c-1.954 1.466-5.862 1.466-4.397-2.931z" stroke="#FFAC33" stroke-opacity=".54"/></g></g><defs><filter id="filter0_d" x="155" y="33" width="193" height="193" filterUnits="userSpaceOnUse" color-interpolation-filters="sRGB"><feFlood flood-opacity="0" result="BackgroundImageFix"/><feColorMatrix in="SourceAlpha" values="0 0 0 0 0 0 0 0 0 0 0 0 0 0 0 0 0 0 127 0"/><feOffset dy="4"/><feGaussianBlur stdDeviation="7"/><feColorMatrix values="0 0 0 0 0 0 0 0 0 0 0 0 0 0 0 0 0 0 0.5 0"/><feBlend in2="BackgroundImageFix" result="effect1_dropShadow"/><feBlend in="SourceGraphic" in2="effect1_dropShadow" result="shape"/></filter><filter id="filter1_d" x="200.149" y="63.379" width="106.289" height="125.799" filterUnits="userSpaceOnUse" color-interpolation-filters="sRGB"><feFlood flood-opacity="0" result="BackgroundImageFix"/><feColorMatrix in="SourceAlpha" values="0 0 0 0 0 0 0 0 0 0 0 0 0 0 0 0 0 0 127 0"/><feOffset dx="1" dy="1"/><feGaussianBlur stdDeviation="2"/><feColorMatrix values="0 0 0 0 0 0 0 0 0 0 0 0 0 0 0 0 0 0 0.2 0"/><feBlend in2="BackgroundImageFix" result="effect1_dropShadow"/><feBlend in="SourceGraphic" in2="effect1_dropShadow" result="shape"/></filter><radialGradient id="paint1_radial" cx="0" cy="0" r="1" gradientUnits="userSpaceOnUse" gradientTransform="rotate(95.076 103.809 139.554) scale(175.187 350.374)"><stop stop-color="#BDE1F1"/><stop offset="1" stop-color="#60C5D9" stop-opacity=".2"/></radialGradient><linearGradient id="paint0_linear" x1="499.5" y1="0" x2="3.5" y2="252" gradientUnits="userSpaceOnUse"><stop offset=".012" stop-color="#09236E"/><stop offset="1" stop-color="#2577A7"/></linearGradient></defs></svg>