<svg width="107" height="127" fill="none" xmlns="http://www.w3.org/2000/svg"><g filter="url(#filter0_d)"><path d="M23.546 117.371l22.472-44.942H6.448c-3.714-.328-4.418-3.792-1.465-6.84L75.328 4.526c3.77-2.83 7.328 0 5.862 3.908 0 0-18.562 36.638-19.54 38.592-.977 1.954-2.962 5.387 0 5.374H97.8c3.419 0 4.847 3.83 2.442 6.35l-72.299 61.552c-1.954 1.466-5.862 1.466-4.397-2.931z" fill="#FFAC33"/><path d="M23.546 117.371l22.472-44.942H6.448c-3.714-.328-4.418-3.792-1.465-6.84L75.328 4.526c3.77-2.83 7.328 0 5.862 3.908 0 0-18.562 36.638-19.54 38.592-.977 1.954-2.962 5.387 0 5.374H97.8c3.419 0 4.847 3.83 2.442 6.35l-72.299 61.552c-1.954 1.466-5.862 1.466-4.397-2.931z" stroke="#FFAC33" stroke-opacity=".54"/></g><defs><filter id="filter0_d" x=".149" y=".379" width="106.289" height="125.799" filterUnits="userSpaceOnUse" color-interpolation-filters="sRGB"><feFlood flood-opacity="0" result="BackgroundImageFix"/><feColorMatrix in="SourceAlpha" values="0 0 0 0 0 0 0 0 0 0 0 0 0 0 0 0 0 0 127 0"/><feOffset dx="1" dy="1"/><feGaussianBlur stdDeviation="2"/><feColorMatrix values="0 0 0 0 0 0 0 0 0 0 0 0 0 0 0 0 0 0 0.2 0"/><feBlend in2="BackgroundImageFix" result="effect1_dropShadow"/><feBlend in="SourceGraphic" in2="effect1_dropShadow" result="shape"/></filter></defs></svg>