<svg xmlns="http://www.w3.org/2000/svg" xmlns:xlink="http://www.w3.org/1999/xlink" width="840" height="494.2"><rect width="840" height="494.2" rx="5" ry="5" class="a"/><svg y="0%" x="0%"><circle cx="20" cy="20" r="6" fill="#ff5f58"/><circle cx="40" cy="20" r="6" fill="#ffbd2e"/><circle cx="60" cy="20" r="6" fill="#18c132"/></svg><svg height="434.2" viewBox="0 0 80 43.42" width="800" x="15" xmlns="http://www.w3.org/2000/svg" xmlns:xlink="http://www.w3.org/1999/xlink" y="50"><style>@keyframes n{0%{transform:translateX(0)}to{transform:translateX(-80px)}}.a{fill:#282d35}.f{fill:#b9c0cb}.f,.g,.h,.i{white-space:pre}.g{fill:#5fd75f;font-weight:700}.h,.i{fill:#a8cc8c}.i{fill:#dbab79}</style><g font-family="Monaco,Consolas,Menlo,'Bitstream Vera Sans Mono','Powerline Symbols',monospace" font-size="1.67"><defs><symbol id="1"><text y="1.67" class="f">DEBUG=*ruby*</text><text x="13.026" y="1.67" class="f">bin/vite</text><text x="22.044" y="1.67" class="f">dev</text></symbol><symbol id="2"><text x="2.004" y="1.67" class="g">vite-plugin-ruby:config</text><text x="26.052" y="1.67" class="f">{</text></symbol><symbol id="3"><text x="2.004" y="1.67" class="g">vite-plugin-ruby:config</text><text x="28.056" y="1.67" class="f">base:</text><text x="34.068" y="1.67" class="h">&apos;/vite-dev/&apos;</text><text x="46.092" y="1.67" class="f">,</text></symbol><symbol id="4"><text x="2.004" y="1.67" class="g">vite-plugin-ruby:config</text><text x="28.056" y="1.67" class="f">build:</text><text x="35.07" y="1.67" class="f">{</text></symbol><symbol id="5"><text x="2.004" y="1.67" class="g">vite-plugin-ruby:config</text><text x="30.06" y="1.67" class="f">assetsDir:</text><text x="41.082" y="1.67" class="h">&apos;assets&apos;</text><text x="49.098" y="1.67" class="f">,</text></symbol><symbol id="6"><text x="2.004" y="1.67" class="g">vite-plugin-ruby:config</text><text x="30.06" y="1.67" class="f">emptyOutDir:</text><text x="43.086" y="1.67" class="i">false</text><text x="48.096" y="1.67" class="f">,</text></symbol><symbol id="7"><text x="2.004" y="1.67" class="g">vite-plugin-ruby:config</text><text x="30.06" y="1.67" class="f">outDir:</text><text x="38.076" y="1.67" class="h">&apos;../../../public/vite-dev&apos;</text><text x="64.128" y="1.67" class="f">,</text></symbol><symbol id="8"><text x="2.004" y="1.67" class="g">vite-plugin-ruby:config</text><text x="30.06" y="1.67" class="f">manifest:</text><text x="40.08" y="1.67" class="i">true</text><text x="44.088" y="1.67" class="f">,</text></symbol><symbol id="9"><text x="2.004" y="1.67" class="g">vite-plugin-ruby:config</text><text x="30.06" y="1.67" class="f">rollupOptions:</text><text x="45.09" y="1.67" class="f">{</text><text x="47.094" y="1.67" class="f">input:</text><text x="54.108" y="1.67" style="white-space:pre" fill="#66c2cd">[Object]</text><text x="63.126" y="1.67" class="f">},</text></symbol><symbol id="10"><text x="2.004" y="1.67" class="g">vite-plugin-ruby:config</text><text x="30.06" y="1.67" class="f">sourcemap:</text><text x="41.082" y="1.67" class="i">false</text></symbol><symbol id="11"><text x="2.004" y="1.67" class="g">vite-plugin-ruby:config</text><text x="28.056" y="1.67" class="f">},</text></symbol><symbol id="12"><text x="2.004" y="1.67" class="g">vite-plugin-ruby:config</text><text x="28.056" y="1.67" class="f">root:</text><text x="34.068" y="1.67" class="h">&apos;entrypoints&apos;</text><text x="47.094" y="1.67" class="f">,</text></symbol><symbol id="13"><text x="2.004" y="1.67" class="g">vite-plugin-ruby:config</text><text x="28.056" y="1.67" class="f">server:</text><text x="36.072" y="1.67" class="f">{</text><text x="38.076" y="1.67" class="f">host:</text><text x="44.088" y="1.67" class="h">&apos;localhost&apos;</text><text x="55.11" y="1.67" class="f">,</text><text x="57.114" y="1.67" class="f">port:</text><text x="63.126" y="1.67" class="i">3036</text><text x="68.136" y="1.67" class="f">},</text></symbol><symbol id="14"><text x="2.004" y="1.67" class="g">vite-plugin-ruby:config</text><text x="28.056" y="1.67" class="f">entrypoints:</text><text x="41.082" y="1.67" class="f">{</text></symbol><symbol id="15"><text x="2.004" y="1.67" class="g">vite-plugin-ruby:config</text><text x="30.06" y="1.67" class="f">application:</text><text x="43.086" y="1.67" class="h">&apos;entrypoints/application.ts&apos;</text><text x="71.142" y="1.67" class="f">,</text></symbol><symbol id="16"><text x="2.004" y="1.67" class="g">vite-plugin-ruby:config</text><text x="30.06" y="1.67" class="f">example_import:</text><text x="46.092" y="1.67" class="h">&apos;entrypoints/example_import.js&apos;</text><text x="77.154" y="1.67" class="f">,</text></symbol><symbol id="17"><text x="2.004" y="1.67" class="g">vite-plugin-ruby:config</text><text x="30.06" y="1.67" class="f">styles:</text><text x="38.076" y="1.67" class="h">&apos;entrypoints/styles.css&apos;</text></symbol><symbol id="18"><text x="2.004" y="1.67" class="g">vite-plugin-ruby:config</text><text x="28.056" y="1.67" class="f">}</text></symbol><symbol id="19"><text x="2.004" y="1.67" class="g">vite-plugin-ruby:config</text><text x="26.052" y="1.67" class="f">}</text><text x="28.056" y="1.67" style="white-space:pre" fill="#5fd75f">+0ms</text></symbol><symbol id="a"><path fill="transparent" d="M0 0h80v21H0z"/></symbol><symbol id="b"><path fill="#6f7683" d="M0 0h1.102v2.171H0z"/></symbol></defs><path class="a" d="M0 0h80v43.42H0z"/><g style="animation-duration:5.574287s;animation-iteration-count:infinite;animation-name:n;animation-timing-function:steps(1,end)"><svg width="160"><svg><use xlink:href="#a"/><use xlink:href="#b" x="-.004" y="41.224"/><use xlink:href="#1"/><use xlink:href="#2" y="2.171"/><use xlink:href="#3" y="4.342"/><use xlink:href="#4" y="6.513"/><use xlink:href="#5" y="8.684"/><use xlink:href="#6" y="10.855"/><use xlink:href="#7" y="13.026"/><use xlink:href="#8" y="15.197"/><use xlink:href="#9" y="17.368"/><use xlink:href="#10" y="19.539"/><use xlink:href="#11" y="21.71"/><use xlink:href="#12" y="23.881"/><use xlink:href="#13" y="26.052"/><use xlink:href="#14" y="28.223"/><use xlink:href="#15" y="30.394"/><use xlink:href="#16" y="32.565"/><use xlink:href="#17" y="34.736"/><use xlink:href="#18" y="36.907"/><use xlink:href="#19" y="39.078"/></svg><svg x="80"><use xlink:href="#a"/><use xlink:href="#b" x="-.004" y="43.395"/><use xlink:href="#1"/><use xlink:href="#2" y="2.171"/><use xlink:href="#3" y="4.342"/><use xlink:href="#4" y="6.513"/><use xlink:href="#5" y="8.684"/><use xlink:href="#6" y="10.855"/><use xlink:href="#7" y="13.026"/><use xlink:href="#8" y="15.197"/><use xlink:href="#9" y="17.368"/><use xlink:href="#10" y="19.539"/><use xlink:href="#11" y="21.71"/><use xlink:href="#12" y="23.881"/><use xlink:href="#13" y="26.052"/><use xlink:href="#14" y="28.223"/><use xlink:href="#15" y="30.394"/><use xlink:href="#16" y="32.565"/><use xlink:href="#17" y="34.736"/><use xlink:href="#18" y="36.907"/><use xlink:href="#19" y="39.078"/></svg></svg></g></g></svg></svg>