<svg xmlns="http://www.w3.org/2000/svg" xmlns:xlink="http://www.w3.org/1999/xlink" width="840" height="494.2"><rect width="840" height="494.2" rx="5" ry="5" class="a"/><svg y="0%" x="0%"><circle cx="20" cy="20" r="6" fill="#ff5f58"/><circle cx="40" cy="20" r="6" fill="#ffbd2e"/><circle cx="60" cy="20" r="6" fill="#18c132"/></svg><svg height="434.2" viewBox="0 0 80 43.42" width="800" x="15" xmlns="http://www.w3.org/2000/svg" xmlns:xlink="http://www.w3.org/1999/xlink" y="50"><style>@keyframes q{0%{transform:translateX(0)}1.8%{transform:translateX(-80px)}2.5%{transform:translateX(-160px)}4.1%{transform:translateX(-240px)}5.3%{transform:translateX(-320px)}6%{transform:translateX(-400px)}7.6%{transform:translateX(-480px)}9.5%{transform:translateX(-560px)}11.3%{transform:translateX(-640px)}35.7%{transform:translateX(-720px)}36%{transform:translateX(-800px)}36.3%{transform:translateX(-880px)}54.2%{transform:translateX(-960px)}to{transform:translateX(-1040px)}}.a{fill:#282d35}.f,.g{fill:#b9c0cb;white-space:pre}.g{fill:#ffaf00;font-weight:700}.h,.i,.j,.m,.n{fill:#66c2cd;white-space:pre}.i,.j,.m,.n{fill:#dbab79}.j,.m,.n{fill:#ffaf00}.m,.n{fill:#a8cc8c}.n{fill:#66c2cd;font-weight:700}</style><g font-family="Monaco,Consolas,Menlo,'Bitstream Vera Sans Mono','Powerline Symbols',monospace" font-size="1.67"><defs><symbol id="1"><text y="1.67" class="f">bin/vite</text><text x="9.018" y="1.67" class="f">dev</text><text x="13.026" y="1.67" class="f">--debug</text></symbol><symbol id="2"><text x="2.004" y="1.67" class="g">vite:config</text><text x="16.032" y="1.67" class="f">},</text></symbol><symbol id="3"><text x="2.004" y="1.67" class="g">vite:config</text><text x="16.032" y="1.67" class="f">assetsInclude:</text><text x="31.062" y="1.67" class="h">[Function:</text><text x="42.084" y="1.67" class="h">assetsInclude]</text><text x="56.112" y="1.67" class="f">,</text></symbol><symbol id="4"><text x="2.004" y="1.67" class="g">vite:config</text><text x="16.032" y="1.67" class="f">logger:</text><text x="24.048" y="1.67" class="f">{</text></symbol><symbol id="5"><text x="2.004" y="1.67" class="g">vite:config</text><text x="18.036" y="1.67" class="f">hasWarned:</text><text x="29.058" y="1.67" class="i">false</text><text x="34.068" y="1.67" class="f">,</text></symbol><symbol id="6"><text x="2.004" y="1.67" class="g">vite:config</text><text x="18.036" y="1.67" class="f">info:</text><text x="24.048" y="1.67" class="h">[Function:</text><text x="35.07" y="1.67" class="h">info]</text><text x="40.08" y="1.67" class="f">,</text></symbol><symbol id="7"><text x="2.004" y="1.67" class="g">vite:config</text><text x="18.036" y="1.67" class="f">warn:</text><text x="24.048" y="1.67" class="h">[Function:</text><text x="35.07" y="1.67" class="h">warn]</text><text x="40.08" y="1.67" class="f">,</text></symbol><symbol id="8"><text x="2.004" y="1.67" class="g">vite:config</text><text x="18.036" y="1.67" class="f">error:</text><text x="25.05" y="1.67" class="h">[Function:</text><text x="36.072" y="1.67" class="h">error]</text><text x="42.084" y="1.67" class="f">,</text></symbol><symbol id="9"><text x="2.004" y="1.67" class="g">vite:config</text><text x="18.036" y="1.67" class="f">clearScreen:</text><text x="31.062" y="1.67" class="h">[Function:</text><text x="42.084" y="1.67" class="h">clearScreen]</text></symbol><symbol id="10"><text x="2.004" y="1.67" class="g">vite:config</text><text x="16.032" y="1.67" class="f">createResolver:</text><text x="32.064" y="1.67" class="h">[Function:</text><text x="43.086" y="1.67" class="h">createResolver]</text></symbol><symbol id="11"><text x="2.004" y="1.67" class="g">vite:config</text><text x="14.028" y="1.67" class="f">}</text><text x="16.032" y="1.67" class="j">+27ms</text></symbol><symbol id="12"><text x="2.004" y="1.67" style="white-space:pre" fill="#5fd7d7" font-weight="700">vite:deps</text><text x="12.024" y="1.67" class="f">Hash</text><text x="17.034" y="1.67" class="f">is</text><text x="20.04" y="1.67" class="f">consistent.</text><text x="32.064" y="1.67" class="f">Skipping.</text><text x="42.084" y="1.67" class="f">Use</text><text x="46.092" y="1.67" class="f">--force</text><text x="54.108" y="1.67" class="f">to</text><text x="57.114" y="1.67" class="f">override.</text><text x="67.134" y="1.67" style="white-space:pre" fill="#5fd7d7">+0ms</text></symbol><symbol id="13"><text x="2.004" y="1.67" class="h">vite</text><text x="7.014" y="1.67" class="h">v2.1.2</text><text x="14.028" y="1.67" class="m">dev</text><text x="18.036" y="1.67" class="m">server</text><text x="25.05" y="1.67" class="m">running</text><text x="33.066" y="1.67" class="m">at:</text></symbol><symbol id="14"><text x="2.004" y="1.67" class="f">&gt;</text><text x="4.008" y="1.67" class="f">Local:</text><text x="14.028" y="1.67" class="h">http://localhost:</text><text x="31.062" y="1.67" class="n">3036</text><text x="35.07" y="1.67" class="h">/vite-dev/</text></symbol><symbol id="15"><text x="2.004" y="1.67" class="f">&gt;</text><text x="4.008" y="1.67" class="f">Network:</text><text x="14.028" y="1.67" class="h">http://192.168.1.42:</text><text x="34.068" y="1.67" class="n">3036</text><text x="38.076" y="1.67" class="h">/vite-dev/</text></symbol><symbol id="16"><text x="2.004" y="1.67" class="h">ready</text><text x="8.016" y="1.67" class="h">in</text><text x="11.022" y="1.67" class="h">581ms.</text></symbol><symbol id="17"><text y="1.67" class="f">^C</text></symbol><symbol id="a"><path fill="transparent" d="M0 0h80v21H0z"/></symbol><symbol id="b"><path fill="#6f7683" d="M0 0h1.102v2.171H0z"/></symbol></defs><path class="a" d="M0 0h80v43.42H0z"/><g style="animation-duration:8.753712s;animation-iteration-count:infinite;animation-name:q;animation-timing-function:steps(1,end)"><svg width="1120"><svg><use xlink:href="#a"/><use xlink:href="#b" x="13.996"/><text y="1.67" class="f">bin/vite</text><text x="9.018" y="1.67" class="f">dev</text><text x="13.026" y="1.67" class="f">-</text></svg><svg x="80"><use xlink:href="#a"/><use xlink:href="#b" x="14.996"/><text y="1.67" class="f">bin/vite</text><text x="9.018" y="1.67" class="f">dev</text><text x="13.026" y="1.67" class="f">--</text></svg><svg x="160"><use xlink:href="#a"/><use xlink:href="#b" x="15.996"/><text y="1.67" class="f">bin/vite</text><text x="9.018" y="1.67" class="f">dev</text><text x="13.026" y="1.67" class="f">--d</text></svg><svg x="240"><use xlink:href="#a"/><use xlink:href="#b" x="16.996"/><text y="1.67" class="f">bin/vite</text><text x="9.018" y="1.67" class="f">dev</text><text x="13.026" y="1.67" class="f">--de</text></svg><svg x="320"><use xlink:href="#a"/><use xlink:href="#b" x="17.996"/><text y="1.67" class="f">bin/vite</text><text x="9.018" y="1.67" class="f">dev</text><text x="13.026" y="1.67" class="f">--deb</text></svg><svg x="400"><use xlink:href="#a"/><use xlink:href="#b" x="18.996"/><text y="1.67" class="f">bin/vite</text><text x="9.018" y="1.67" class="f">dev</text><text x="13.026" y="1.67" class="f">--debu</text></svg><svg x="480"><use xlink:href="#a"/><use xlink:href="#b" x="19.996"/><use xlink:href="#1"/></svg><svg x="560"><use xlink:href="#a"/><use xlink:href="#b" x="-.004" y="2.146"/><use xlink:href="#1"/></svg><svg x="640"><use xlink:href="#a"/><use xlink:href="#b" x="-.004" y="2.146"/><use xlink:href="#1"/></svg><svg x="720"><use xlink:href="#a"/><use xlink:href="#b" x="-.004" y="4.317"/><use xlink:href="#1"/><text x="2.004" y="3.841" class="g">vite:config</text><text x="14.028" y="3.841" class="f">bundled</text><text x="22.044" y="3.841" class="f">config</text><text x="29.058" y="3.841" class="f">file</text><text x="34.068" y="3.841" class="f">loaded</text><text x="41.082" y="3.841" class="f">in</text><text x="44.088" y="3.841" class="f">271ms</text><text x="50.1" y="3.841" class="j">+0ms</text></svg><svg x="800"><use xlink:href="#a"/><use xlink:href="#b" x="-.004" y="43.395"/><text x="2.004" y="1.67" class="g">vite:config</text><text x="18.036" y="1.67" class="f">VITE_RUBY_PORT:</text><text x="34.068" y="1.67" class="m">&apos;3036&apos;</text><text x="40.08" y="1.67" class="f">,</text><text x="2.004" y="3.841" class="g">vite:config</text><text x="18.036" y="3.841" class="f">VITE_RUBY_HIDE_BUILD_CONSOLE_OUTPUT:</text><text x="55.11" y="3.841" class="m">&apos;false&apos;</text><text x="62.124" y="3.841" class="f">,</text><text x="2.004" y="6.012" class="g">vite:config</text><text x="18.036" y="6.012" class="f">VITE_RUBY_VITE_BIN_PATH:</text><text x="43.086" y="6.012" class="m">&apos;node_modules/.bin/vite&apos;</text><text x="67.134" y="6.012" class="f">,</text><text x="2.004" y="8.183" class="g">vite:config</text><text x="18.036" y="8.183" class="f">VITE_RUBY_MODE:</text><text x="34.068" y="8.183" class="m">&apos;development&apos;</text><text x="47.094" y="8.183" class="f">,</text><text x="2.004" y="10.354" class="g">vite:config</text><text x="18.036" y="10.354" class="f">VITE_RUBY_ROOT:</text><text x="34.068" y="10.354" class="m">&apos;/Projects/vite_ruby/examples/rails&apos;</text><text x="70.14" y="10.354" class="f">,</text><text x="2.004" y="12.525" class="g">vite:config</text><text x="18.036" y="12.525" class="f">BASE_URL:</text><text x="28.056" y="12.525" class="m">&apos;/vite-dev/&apos;</text><text x="40.08" y="12.525" class="f">,</text><text x="2.004" y="14.696" class="g">vite:config</text><text x="18.036" y="14.696" class="f">MODE:</text><text x="24.048" y="14.696" class="m">&apos;development&apos;</text><text x="37.074" y="14.696" class="f">,</text><text x="2.004" y="16.867" class="g">vite:config</text><text x="18.036" y="16.867" class="f">DEV:</text><text x="23.046" y="16.867" class="i">true</text><text x="27.054" y="16.867" class="f">,</text><text x="2.004" y="19.038" class="g">vite:config</text><text x="18.036" y="19.038" class="f">PROD:</text><text x="24.048" y="19.038" class="i">false</text><use xlink:href="#2" y="19.539"/><use xlink:href="#3" y="21.71"/><use xlink:href="#4" y="23.881"/><use xlink:href="#5" y="26.052"/><use xlink:href="#6" y="28.223"/><use xlink:href="#7" y="30.394"/><use xlink:href="#8" y="32.565"/><use xlink:href="#9" y="34.736"/><use xlink:href="#2" y="36.907"/><use xlink:href="#10" y="39.078"/><use xlink:href="#11" y="41.249"/></svg><svg x="880"><use xlink:href="#a"/><use xlink:href="#b" x="-.004" y="43.395"/><use xlink:href="#2"/><use xlink:href="#3" y="2.171"/><use xlink:href="#4" y="4.342"/><use xlink:href="#5" y="6.513"/><use xlink:href="#6" y="8.684"/><use xlink:href="#7" y="10.855"/><use xlink:href="#8" y="13.026"/><use xlink:href="#9" y="15.197"/><use xlink:href="#2" y="17.368"/><use xlink:href="#10" y="19.539"/><use xlink:href="#11" y="21.71"/><use xlink:href="#12" y="23.881"/><use xlink:href="#13" y="28.223"/><use xlink:href="#14" y="32.565"/><use xlink:href="#15" y="34.736"/><use xlink:href="#16" y="39.078"/></svg><svg x="960"><use xlink:href="#a"/><use xlink:href="#b" x="1.996" y="43.395"/><use xlink:href="#2"/><use xlink:href="#3" y="2.171"/><use xlink:href="#4" y="4.342"/><use xlink:href="#5" y="6.513"/><use xlink:href="#6" y="8.684"/><use xlink:href="#7" y="10.855"/><use xlink:href="#8" y="13.026"/><use xlink:href="#9" y="15.197"/><use xlink:href="#2" y="17.368"/><use xlink:href="#10" y="19.539"/><use xlink:href="#11" y="21.71"/><use xlink:href="#12" y="23.881"/><use xlink:href="#13" y="28.223"/><use xlink:href="#14" y="32.565"/><use xlink:href="#15" y="34.736"/><use xlink:href="#16" y="39.078"/><use xlink:href="#17" y="43.42"/></svg><svg x="1040"><use xlink:href="#a"/><use xlink:href="#b" x="-.004" y="43.395"/><use xlink:href="#3"/><use xlink:href="#4" y="2.171"/><use xlink:href="#5" y="4.342"/><use xlink:href="#6" y="6.513"/><use xlink:href="#7" y="8.684"/><use xlink:href="#8" y="10.855"/><use xlink:href="#9" y="13.026"/><use xlink:href="#2" y="15.197"/><use xlink:href="#10" y="17.368"/><use xlink:href="#11" y="19.539"/><use xlink:href="#12" y="21.71"/><use xlink:href="#13" y="26.052"/><use xlink:href="#14" y="30.394"/><use xlink:href="#15" y="32.565"/><use xlink:href="#16" y="36.907"/><use xlink:href="#17" y="41.249"/></svg></svg></g></g></svg></svg>