<svg xmlns="http://www.w3.org/2000/svg" xmlns:xlink="http://www.w3.org/1999/xlink" width="840" height="494.2"><rect width="840" height="494.2" rx="5" ry="5" class="a"/><svg y="0%" x="0%"><circle cx="20" cy="20" r="6" fill="#ff5f58"/><circle cx="40" cy="20" r="6" fill="#ffbd2e"/><circle cx="60" cy="20" r="6" fill="#18c132"/></svg><svg height="434.2" viewBox="0 0 80 43.42" width="800" x="15" xmlns="http://www.w3.org/2000/svg" xmlns:xlink="http://www.w3.org/1999/xlink" y="50"><style>@keyframes m{0%{transform:translateX(0)}1.3%{transform:translateX(-80px)}2.5%{transform:translateX(-160px)}3.8%{transform:translateX(-240px)}4.3%{transform:translateX(-320px)}4.7%{transform:translateX(-400px)}5.6%{transform:translateX(-480px)}6.3%{transform:translateX(-560px)}6.9%{transform:translateX(-640px)}10.1%{transform:translateX(-720px)}11.3%{transform:translateX(-800px)}12.7%{transform:translateX(-880px)}24%{transform:translateX(-960px)}27.7%{transform:translateX(-1040px)}34.5%{transform:translateX(-1120px)}53.5%{transform:translateX(-1200px)}61.6%{transform:translateX(-1280px)}62.5%{transform:translateX(-1360px)}to{transform:translateX(-1440px)}}.a{fill:#282d35}.f,.g,.h,.i,.j{fill:#b9c0cb;white-space:pre}.g,.h,.i,.j{fill:#a8cc8c}.h,.i,.j{fill:#dbab79}.i,.j{fill:#66c2cd}.j{font-weight:700}</style><g font-family="Monaco,Consolas,Menlo,'Bitstream Vera Sans Mono','Powerline Symbols',monospace" font-size="1.67"><defs><symbol id="1"><text y="1.67" class="f">bin/vite</text><text x="9.018" y="1.67" class="f">dev</text><text x="13.026" y="1.67" class="f">--inspect</text></symbol><symbol id="2"><text y="1.67" class="f">Debugger</text><text x="9.018" y="1.67" class="f">listening</text><text x="19.038" y="1.67" class="f">on</text><text x="22.044" y="1.67" class="f">ws://127.0.0.1:9229/7f242a81-4e20-4a8e-9c9d-cdf07d30f82b</text></symbol><symbol id="3"><text y="1.67" class="f">For</text><text x="4.008" y="1.67" class="f">help,</text><text x="10.02" y="1.67" class="f">see:</text><text x="15.03" y="1.67" class="f">https://nodejs.org/en/docs/inspector</text></symbol><symbol id="4"><text y="1.67" class="f">Debugger</text><text x="9.018" y="1.67" class="f">attached.</text></symbol><symbol id="5"><text y="1.67" class="g">Pre-bundling</text><text x="13.026" y="1.67" class="g">dependencies:</text></symbol><symbol id="6"><text x="2.004" y="1.67" class="h">@rails/ujs</text></symbol><symbol id="7"><text x="2.004" y="1.67" class="h">turbolinks</text></symbol><symbol id="8"><text x="2.004" y="1.67" class="h">@rails/activestorage</text></symbol><symbol id="9"><text y="1.67" class="f">(this</text><text x="6.012" y="1.67" class="f">will</text><text x="11.022" y="1.67" class="f">be</text><text x="14.028" y="1.67" class="f">run</text><text x="18.036" y="1.67" class="f">only</text><text x="23.046" y="1.67" class="f">when</text><text x="28.056" y="1.67" class="f">your</text><text x="33.066" y="1.67" class="f">dependencies</text><text x="46.092" y="1.67" class="f">or</text><text x="49.098" y="1.67" class="f">config</text><text x="56.112" y="1.67" class="f">have</text><text x="61.122" y="1.67" class="f">changed)</text></symbol><symbol id="10"><text x="2.004" y="1.67" class="i">vite</text><text x="7.014" y="1.67" class="i">v2.1.2</text><text x="14.028" y="1.67" class="g">dev</text><text x="18.036" y="1.67" class="g">server</text><text x="25.05" y="1.67" class="g">running</text><text x="33.066" y="1.67" class="g">at:</text></symbol><symbol id="11"><text x="2.004" y="1.67" class="f">&gt;</text><text x="4.008" y="1.67" class="f">Local:</text><text x="14.028" y="1.67" class="i">http://localhost:</text><text x="31.062" y="1.67" class="j">3036</text><text x="35.07" y="1.67" class="i">/vite-dev/</text></symbol><symbol id="12"><text x="2.004" y="1.67" class="f">&gt;</text><text x="4.008" y="1.67" class="f">Network:</text><text x="14.028" y="1.67" class="i">http://192.168.1.42:</text><text x="34.068" y="1.67" class="j">3036</text><text x="38.076" y="1.67" class="i">/vite-dev/</text></symbol><symbol id="13"><text x="2.004" y="1.67" class="i">ready</text><text x="8.016" y="1.67" class="i">in</text><text x="11.022" y="1.67" class="i">1354ms.</text></symbol><symbol id="a"><path fill="transparent" d="M0 0h80v21H0z"/></symbol><symbol id="b"><path fill="#6f7683" d="M0 0h1.102v2.171H0z"/></symbol></defs><path class="a" d="M0 0h80v43.42H0z"/><g style="animation-duration:13.347596000000001s;animation-iteration-count:infinite;animation-name:m;animation-timing-function:steps(1,end)"><svg width="1520"><svg><use xlink:href="#a"/><use xlink:href="#b" x="12.996"/><text y="1.67" class="f">bin/vite</text><text x="9.018" y="1.67" class="f">dev</text></svg><svg x="80"><use xlink:href="#a"/><use xlink:href="#b" x="13.996"/><text y="1.67" class="f">bin/vite</text><text x="9.018" y="1.67" class="f">dev</text><text x="13.026" y="1.67" class="f">-</text></svg><svg x="160"><use xlink:href="#a"/><use xlink:href="#b" x="14.996"/><text y="1.67" class="f">bin/vite</text><text x="9.018" y="1.67" class="f">dev</text><text x="13.026" y="1.67" class="f">--</text></svg><svg x="240"><use xlink:href="#a"/><use xlink:href="#b" x="15.996"/><text y="1.67" class="f">bin/vite</text><text x="9.018" y="1.67" class="f">dev</text><text x="13.026" y="1.67" class="f">--i</text></svg><svg x="320"><use xlink:href="#a"/><use xlink:href="#b" x="16.996"/><text y="1.67" class="f">bin/vite</text><text x="9.018" y="1.67" class="f">dev</text><text x="13.026" y="1.67" class="f">--in</text></svg><svg x="400"><use xlink:href="#a"/><use xlink:href="#b" x="17.996"/><text y="1.67" class="f">bin/vite</text><text x="9.018" y="1.67" class="f">dev</text><text x="13.026" y="1.67" class="f">--ins</text></svg><svg x="480"><use xlink:href="#a"/><use xlink:href="#b" x="18.996"/><text y="1.67" class="f">bin/vite</text><text x="9.018" y="1.67" class="f">dev</text><text x="13.026" y="1.67" class="f">--insp</text></svg><svg x="560"><use xlink:href="#a"/><use xlink:href="#b" x="19.996"/><text y="1.67" class="f">bin/vite</text><text x="9.018" y="1.67" class="f">dev</text><text x="13.026" y="1.67" class="f">--inspe</text></svg><svg x="640"><use xlink:href="#a"/><use xlink:href="#b" x="20.996"/><text y="1.67" class="f">bin/vite</text><text x="9.018" y="1.67" class="f">dev</text><text x="13.026" y="1.67" class="f">--inspec</text></svg><svg x="720"><use xlink:href="#a"/><use xlink:href="#b" x="21.996"/><use xlink:href="#1"/></svg><svg x="800"><use xlink:href="#a"/><use xlink:href="#b" x="-.004" y="2.146"/><use xlink:href="#1"/></svg><svg x="880"><use xlink:href="#a"/><use xlink:href="#b" x="-.004" y="2.146"/><use xlink:href="#1"/></svg><svg x="960"><use xlink:href="#a"/><use xlink:href="#b" x="-.004" y="6.488"/><use xlink:href="#1"/><use xlink:href="#2" y="2.171"/><use xlink:href="#3" y="4.342"/></svg><svg x="1040"><use xlink:href="#a"/><use xlink:href="#b" x="-.004" y="8.659"/><use xlink:href="#1"/><use xlink:href="#2" y="2.171"/><use xlink:href="#3" y="4.342"/><use xlink:href="#4" y="6.513"/></svg><svg x="1120"><use xlink:href="#a"/><use xlink:href="#b" x="-.004" y="10.83"/><use xlink:href="#1"/><use xlink:href="#2" y="2.171"/><use xlink:href="#3" y="4.342"/><use xlink:href="#4" y="6.513"/><use xlink:href="#4" y="8.684"/></svg><svg x="1200"><use xlink:href="#a"/><use xlink:href="#b" x="-.004" y="13.001"/><use xlink:href="#1"/><use xlink:href="#2" y="2.171"/><use xlink:href="#3" y="4.342"/><use xlink:href="#4" y="6.513"/><use xlink:href="#4" y="8.684"/><use xlink:href="#4" y="10.855"/></svg><svg x="1280"><use xlink:href="#a"/><use xlink:href="#b" x="-.004" y="23.856"/><use xlink:href="#1"/><use xlink:href="#2" y="2.171"/><use xlink:href="#3" y="4.342"/><use xlink:href="#4" y="6.513"/><use xlink:href="#4" y="8.684"/><use xlink:href="#4" y="10.855"/><use xlink:href="#5" y="13.026"/><use xlink:href="#6" y="15.197"/><use xlink:href="#7" y="17.368"/><use xlink:href="#8" y="19.539"/><use xlink:href="#9" y="21.71"/></svg><svg x="1360"><use xlink:href="#a"/><use xlink:href="#b" x="-.004" y="41.224"/><use xlink:href="#1"/><use xlink:href="#2" y="2.171"/><use xlink:href="#3" y="4.342"/><use xlink:href="#4" y="6.513"/><use xlink:href="#4" y="8.684"/><use xlink:href="#4" y="10.855"/><use xlink:href="#5" y="13.026"/><use xlink:href="#6" y="15.197"/><use xlink:href="#7" y="17.368"/><use xlink:href="#8" y="19.539"/><use xlink:href="#9" y="21.71"/><use xlink:href="#10" y="26.052"/><use xlink:href="#11" y="30.394"/><use xlink:href="#12" y="32.565"/><use xlink:href="#13" y="36.907"/></svg><svg x="1440"><use xlink:href="#a"/><use xlink:href="#b" x="-.004" y="43.395"/><use xlink:href="#1"/><use xlink:href="#2" y="2.171"/><use xlink:href="#3" y="4.342"/><use xlink:href="#4" y="6.513"/><use xlink:href="#4" y="8.684"/><use xlink:href="#4" y="10.855"/><use xlink:href="#5" y="13.026"/><use xlink:href="#6" y="15.197"/><use xlink:href="#7" y="17.368"/><use xlink:href="#8" y="19.539"/><use xlink:href="#9" y="21.71"/><use xlink:href="#10" y="26.052"/><use xlink:href="#11" y="30.394"/><use xlink:href="#12" y="32.565"/><use xlink:href="#13" y="36.907"/></svg></svg></g></g></svg></svg>