<svg width="165" height="165" fill="none" xmlns="http://www.w3.org/2000/svg"><circle cx="82.5" cy="82.5" r="82.5" fill="#C00"/><g filter="url(#filter0_d)"><path d="M54.546 137.371l22.472-44.943h-39.57c-3.714-.327-4.418-3.791-1.465-6.838l70.345-61.064c3.77-2.83 7.328 0 5.862 3.908 0 0-18.562 36.638-19.54 38.592-.978 1.954-2.962 5.388 0 5.374h36.15c3.419 0 4.847 3.83 2.442 6.35l-72.299 61.552c-1.954 1.466-5.862 1.466-4.397-2.931z" fill="#FFAC33"/><path d="M54.546 137.371l22.472-44.943h-39.57c-3.714-.327-4.418-3.791-1.465-6.838l70.345-61.064c3.77-2.83 7.328 0 5.862 3.908 0 0-18.562 36.638-19.54 38.592-.978 1.954-2.962 5.388 0 5.374h36.15c3.419 0 4.847 3.83 2.442 6.35l-72.299 61.552c-1.954 1.466-5.862 1.466-4.397-2.931z" stroke="#FFAC33" stroke-opacity=".54"/></g><defs><filter id="filter0_d" x="31.149" y="20.379" width="106.289" height="125.799" filterUnits="userSpaceOnUse" color-interpolation-filters="sRGB"><feFlood flood-opacity="0" result="BackgroundImageFix"/><feColorMatrix in="SourceAlpha" values="0 0 0 0 0 0 0 0 0 0 0 0 0 0 0 0 0 0 127 0"/><feOffset dx="1" dy="1"/><feGaussianBlur stdDeviation="2"/><feColorMatrix values="0 0 0 0 0 0 0 0 0 0 0 0 0 0 0 0 0 0 0.2 0"/><feBlend in2="BackgroundImageFix" result="effect1_dropShadow"/><feBlend in="SourceGraphic" in2="effect1_dropShadow" result="shape"/></filter></defs></svg>
